# xmcd
#
# Track frame offsets: 
#        150
#        11956
#        24975
#        37295
#        50456
#        63037
#        75266
#        87219
#        98612
#        109526
#        121719
#        132574
#        143630
#        157335
#        167165
#        178495
#        189499
#        201066
#        214199
#        225036
#        238178
#        251290
#        263448
#        276712
#        288925
#        300553
#
# Disc length: 4172 seconds
#
# Revision: 3
# Processed by: cddbd v1.5.2PL0 Copyright (c) Steve Scherf et al.
# Submitted via: ExactAudioCopy v1.0b3
#
DISCID=64104a1a
DTITLE=Hank Williams - You Win Again
DYEAR=2003
DGENRE=Country
TTITLE0=You Win Again
TTITLE1=Jambalaya (On the Bayou)
TTITLE2=Cold, Cold Heart
TTITLE3=Hey, Good Looking
TTITLE4=I'm So Lonesome I Could Cry
TTITLE5=Half as Much
TTITLE6=Lone Gone Lonesome Blues
TTITLE7=My Bucket's Got a Hole in It
TTITLE8=My Heart Would Know
TTITLE9=There'll Be No Teardrops Tonight
TTITLE10=I Can't Help It (If I'm Still in Love with You)
TTITLE11=(I Heard That) Lonesome Whistle
TTITLE12=Ramblin' Man
TTITLE13=Honky Tonk Blues
TTITLE14=Nobody's Lonesome for Me
TTITLE15=I'll Never Get Out of This World Alive
TTITLE16=My Son Calls Another Man Daddy
TTITLE17=Mind Your Own Business
TTITLE18=Why Don't You Love Me?
TTITLE19=I've Just Told Mama Goodbye
TTITLE20=Wedding Bells
TTITLE21=Lost Highway
TTITLE22=You're Gonna Change (Or I'm Gonna Leave)
TTITLE23=Howlin' at the Moon
TTITLE24=Dear John
TTITLE25=They'll Never Take Her Love from Me
EXTD=CDDBSort:williams_hank,you_win_again - YEAR: 2003
EXTT0=
EXTT1=
EXTT2=
EXTT3=
EXTT4=
EXTT5=
EXTT6=
EXTT7=
EXTT8=
EXTT9=
EXTT10=
EXTT11=
EXTT12=
EXTT13=
EXTT14=
EXTT15=
EXTT16=
EXTT17=
EXTT18=
EXTT19=
EXTT20=
EXTT21=
EXTT22=
EXTT23=
EXTT24=
EXTT25=
PLAYORDER=
